<svg width="100" height="100" viewBox="0 0 100 100" fill="none" xmlns="http://www.w3.org/2000/svg">
<g id="ion:people-outline">
<path id="Vector" d="M78.5155 32.8125C77.9433 40.7559 72.0507 46.875 65.6249 46.875C59.1991 46.875 53.2968 40.7578 52.7343 32.8125C52.1483 24.5488 57.8847 18.75 65.6249 18.75C73.3651 18.75 79.1015 24.6992 78.5155 32.8125Z" stroke="#E74227" stroke-opacity="0.7" stroke-width="4" stroke-linecap="round" stroke-linejoin="round"/>
<path id="Vector_2" d="M65.6242 59.375C52.8957 59.375 40.6555 65.6973 37.5891 78.0098C37.1828 79.6387 38.2043 81.25 39.8781 81.25H91.3723C93.0461 81.25 94.0617 79.6387 93.6613 78.0098C90.5949 65.5 78.3547 59.375 65.6242 59.375Z" stroke="#E74227" stroke-opacity="0.7" stroke-width="4" stroke-miterlimit="10"/>
<path id="Vector_3" d="M39.0617 36.3164C38.6046 42.6602 33.8429 47.6562 28.7101 47.6562C23.5773 47.6562 18.8078 42.6621 18.3586 36.3164C17.8918 29.7168 22.5265 25 28.7101 25C34.8937 25 39.5285 29.8379 39.0617 36.3164Z" stroke="#E74227" stroke-opacity="0.7" stroke-width="4" stroke-linecap="round" stroke-linejoin="round"/>
<path id="Vector_4" d="M40.2343 59.7656C36.7089 58.1504 32.8261 57.5293 28.7109 57.5293C18.5546 57.5293 8.76949 62.5781 6.31832 72.4121C5.99605 73.7129 6.81246 75 8.1484 75H30.0781" stroke="#E74227" stroke-opacity="0.7" stroke-width="4" stroke-miterlimit="10" stroke-linecap="round"/>
</g>
</svg>
