<svg width="100" height="100" viewBox="0 0 100 100" fill="none" xmlns="http://www.w3.org/2000/svg">
<g id="_x31_">
<path id="Vector" d="M77.1432 88.9963C76.7261 88.9963 76.3154 88.8327 76.0075 88.5279L67.6245 80.145L60.7301 88.4221C60.4414 88.7685 60.0211 88.9771 59.5687 88.9963C59.1356 89.0284 58.6801 88.8487 58.3625 88.5279L49.8736 80.0359L41.3848 88.5247C41.064 88.8455 40.618 89.0284 40.1785 88.9963C39.7261 88.9771 39.3091 88.7685 39.0171 88.4221L32.1228 80.145L23.7398 88.5279C23.2778 88.9867 22.5945 89.1246 21.9913 88.8744C21.3914 88.6274 21 88.0403 21 87.3922V20.0205C21 15.5996 24.5996 12 29.0205 12H70.7268C75.1477 12 78.7472 15.5996 78.7472 20.0205V87.3922C78.7472 88.0403 78.3558 88.6274 77.7559 88.8744C77.557 88.9578 77.3485 88.9963 77.1432 88.9963ZM49.8736 76.1636C50.2843 76.1636 50.6949 76.3208 51.0093 76.632L59.3923 85.015L66.2867 76.7379C66.5754 76.3914 66.9957 76.1829 67.448 76.1636C67.8876 76.1219 68.3367 76.3112 68.6543 76.632L75.5391 83.52V20.0205C75.5391 17.3673 73.38 15.2082 70.7268 15.2082H29.0205C26.3673 15.2082 24.2082 17.3673 24.2082 20.0205V83.52L31.0929 76.6352C31.4105 76.3144 31.8661 76.1251 32.2992 76.1668C32.7516 76.1861 33.1686 76.3946 33.4606 76.7411L40.355 85.0182L48.7379 76.6352C49.0523 76.3208 49.463 76.1636 49.8736 76.1636Z" fill="#E74227" fill-opacity="0.7"/>
<path id="Vector_2" d="M40.2484 44.0827C36.7098 44.0827 33.832 41.205 33.832 37.6664C33.832 34.1277 36.7098 31.25 40.2484 31.25C43.787 31.25 46.6648 34.1277 46.6648 37.6664C46.6648 41.205 43.787 44.0827 40.2484 44.0827ZM40.2484 34.4582C38.4807 34.4582 37.0402 35.8987 37.0402 37.6664C37.0402 39.4341 38.4807 40.8745 40.2484 40.8745C42.0161 40.8745 43.4566 39.4341 43.4566 37.6664C43.4566 35.8987 42.0161 34.4582 40.2484 34.4582Z" fill="#E74227" fill-opacity="0.7"/>
<path id="Vector_3" d="M59.4984 63.3308C55.9598 63.3308 53.082 60.453 53.082 56.9144C53.082 53.3758 55.9598 50.498 59.4984 50.498C63.037 50.498 65.9148 53.3758 65.9148 56.9144C65.9148 60.453 63.037 63.3308 59.4984 63.3308ZM59.4984 53.7062C57.7307 53.7062 56.2902 55.1467 56.2902 56.9144C56.2902 58.6821 57.7307 60.1226 59.4984 60.1226C61.2661 60.1226 62.7066 58.6821 62.7066 56.9144C62.7066 55.1467 61.2661 53.7062 59.4984 53.7062Z" fill="#E74227" fill-opacity="0.7"/>
<path id="Vector_4" d="M38.6445 63.3302C38.3013 63.3302 37.9548 63.2212 37.6596 62.9934C36.9602 62.4512 36.8351 61.4438 37.3805 60.7412L59.8378 31.8676C60.3799 31.1714 61.3905 31.0431 62.0899 31.5885C62.7893 32.1307 62.9144 33.1381 62.369 33.8407L39.9118 62.7143C39.5942 63.1185 39.1193 63.3302 38.6445 63.3302Z" fill="#E74227" fill-opacity="0.7"/>
</g>
</svg>
