<svg width="100" height="100" viewBox="0 0 100 100" fill="none" xmlns="http://www.w3.org/2000/svg">
<g id="Frame">
<g id="Group">
<path id="Vector" fill-rule="evenodd" clip-rule="evenodd" d="M50 10.4167C35.0423 10.4167 22.9167 22.5423 22.9167 37.5C22.9167 52.4579 35.0423 64.5833 50 64.5833C64.9579 64.5833 77.0833 52.4579 77.0833 37.5C77.0833 22.5423 64.9579 10.4167 50 10.4167ZM18.75 37.5C18.75 20.2411 32.7411 6.25 50 6.25C67.2587 6.25 81.25 20.2411 81.25 37.5C81.25 54.7587 67.2587 68.75 50 68.75C32.7411 68.75 18.75 54.7587 18.75 37.5Z" fill="#E74227" fill-opacity="0.7"/>
<path id="Vector_2" fill-rule="evenodd" clip-rule="evenodd" d="M63.9727 27.6942C64.786 28.5078 64.786 29.8269 63.9727 30.6405L47.306 47.3073C46.4923 48.1207 45.1731 48.1207 44.3594 47.3073L36.0262 38.9738C35.2126 38.1602 35.2126 36.8411 36.0262 36.0275C36.8398 35.2139 38.1589 35.2139 38.9725 36.0275L45.8327 42.8877L61.026 27.6942C61.8398 26.8806 63.1589 26.8806 63.9727 27.6942Z" fill="#E74227" fill-opacity="0.7"/>
<path id="Vector_3" fill-rule="evenodd" clip-rule="evenodd" d="M29.1673 56.25C30.3179 56.25 31.2507 57.1829 31.2507 58.3333V87.9871L48.929 77.3804C49.5886 76.9842 50.4127 76.9842 51.0723 77.3804L68.7506 87.9871V58.3333C68.7506 57.1829 69.6836 56.25 70.834 56.25C71.9844 56.25 72.9173 57.1829 72.9173 58.3333V91.6667C72.9173 92.4171 72.5136 93.1096 71.8602 93.4796C71.2073 93.8496 70.4056 93.8392 69.7623 93.4529L50.0007 81.5962L30.2392 93.4529C29.5956 93.8392 28.794 93.8496 28.1409 93.4796C27.4877 93.1096 27.084 92.4171 27.084 91.6667V58.3333C27.084 57.1829 28.0167 56.25 29.1673 56.25Z" fill="#E74227" fill-opacity="0.7"/>
</g>
</g>
</svg>
