<svg width="100" height="100" viewBox="0 0 100 100" fill="none" xmlns="http://www.w3.org/2000/svg">
<g id="Frame">
<path id="Vector" d="M68.7919 90.998C56.5468 90.998 46.584 81.0351 46.584 68.79C46.584 56.5449 56.5468 46.582 68.7919 46.582C81.0371 46.582 90.9999 56.5449 90.9999 68.79C90.9999 81.0351 81.0371 90.998 68.7919 90.998ZM68.7919 49.9986C58.4294 49.9986 50.0006 58.4274 50.0006 68.79C50.0006 79.1526 58.4294 87.5813 68.7919 87.5813C79.1545 87.5813 87.5833 79.1526 87.5833 68.79C87.5833 58.4274 79.1545 49.9986 68.7919 49.9986Z" fill="#E74227" fill-opacity="0.7"/>
<path id="Vector_2" d="M65.3744 77.3332C64.9234 77.3332 64.4861 77.1521 64.1649 76.8343L57.3317 70.0011C56.6655 69.3349 56.6655 68.2518 57.3317 67.5856C57.9979 66.9193 59.081 66.9193 59.7473 67.5856L65.289 73.1273L76.0445 60.8344C76.6663 60.1203 77.746 60.0485 78.4566 60.6738C79.1673 61.2956 79.239 62.3752 78.6172 63.0859L66.6591 76.7523C66.3481 77.1077 65.9006 77.3195 65.4291 77.3332C65.412 77.3332 65.3915 77.3332 65.3744 77.3332Z" fill="#E74227" fill-opacity="0.7"/>
<path id="Vector_3" d="M43.1889 44.8729C42.5602 44.8729 41.9589 44.5278 41.6582 43.9299C41.238 43.086 41.5796 42.0576 42.4236 41.6374L74.8608 25.4085C75.387 25.142 76.0157 25.1693 76.5213 25.4836C77.0236 25.7946 77.3311 26.3446 77.3311 26.9357V41.4563C77.3311 42.3993 76.5657 43.1646 75.6227 43.1646C74.6798 43.1646 73.9144 42.3993 73.9144 41.4563V29.6997L43.9508 44.6918C43.7048 44.8148 43.4451 44.8729 43.1889 44.8729Z" fill="#E74227" fill-opacity="0.7"/>
<path id="Vector_4" d="M41.4339 77.3307C41.1537 77.3307 40.8667 77.2624 40.6036 77.1155L9.87465 60.0324C9.33824 59.7317 9 59.1612 9 58.5393V26.9357C9 26.3446 9.30749 25.7946 9.80974 25.4836C10.312 25.1693 10.9475 25.142 11.4702 25.4085L43.9075 41.6374C44.7514 42.061 45.0931 43.086 44.6728 43.9299C44.2526 44.7738 43.2242 45.1155 42.3803 44.6952L12.4166 29.6997V57.5349L42.2675 74.1293C43.0909 74.5872 43.3882 75.6258 42.9303 76.4526C42.616 77.013 42.0352 77.3307 41.4339 77.3307Z" fill="#E74227" fill-opacity="0.7"/>
<path id="Vector_5" d="M75.6232 28.6438C75.367 28.6438 75.1073 28.5857 74.8613 28.4627L43.1449 12.6165L11.473 28.4627C10.6291 28.8795 9.60066 28.5447 9.18041 27.7008C8.76017 26.8569 9.09842 25.8285 9.94232 25.4083L42.3796 9.17937C42.8614 8.94021 43.4285 8.94021 43.9068 9.17937L76.3851 25.4083C77.229 25.8319 77.5707 26.8569 77.1504 27.7008C76.8532 28.2987 76.2485 28.6438 75.6232 28.6438Z" fill="#E74227" fill-opacity="0.7"/>
<path id="Vector_6" d="M26.2278 49.1069C25.2849 49.1069 24.5195 48.3415 24.5195 47.3986V34.6956C24.5195 34.0499 24.8851 33.4588 25.4625 33.1684L57.8998 16.9395C58.7437 16.5192 59.7687 16.8609 60.1924 17.7048C60.616 18.5487 60.2709 19.5737 59.427 19.9973L27.9361 35.7547V47.402C27.9361 48.3449 27.1742 49.1069 26.2278 49.1069Z" fill="#E74227" fill-opacity="0.7"/>
</g>
</svg>
