<svg width="19" height="19" viewBox="0 0 19 19" fill="none" xmlns="http://www.w3.org/2000/svg">
<g id="Frame" clip-path="url(#clip0_1_661)">
<path id="Vector" d="M16.4375 12.5H6.31247C6.18338 12.4999 6.05825 12.4554 5.95804 12.374C5.85783 12.2926 5.78861 12.1793 5.76197 12.053L4.26197 4.928C4.24484 4.84612 4.24611 4.76146 4.2657 4.68014C4.28528 4.59881 4.32269 4.52285 4.37522 4.45775C4.42814 4.39288 4.49483 4.34058 4.57045 4.30465C4.64607 4.26872 4.72874 4.25005 4.81247 4.25H17.9375C18.0211 4.25 18.1037 4.26867 18.1793 4.30464C18.2548 4.34061 18.3214 4.39298 18.3741 4.45794C18.4269 4.52289 18.4645 4.59879 18.4841 4.68011C18.5038 4.76143 18.5051 4.84611 18.488 4.928L16.988 12.053C16.9613 12.1793 16.8921 12.2926 16.7919 12.374C16.6917 12.4554 16.5666 12.4999 16.4375 12.5ZM6.76847 11.375H15.9807L17.2437 5.375H5.50547L6.76847 11.375Z" fill="white"/>
<path id="Vector_2" d="M6.31092 12.5C6.18193 12.4998 6.05691 12.4553 5.95682 12.3739C5.85674 12.2926 5.78766 12.1793 5.76117 12.053L3.88242 3.12725C3.83716 2.91799 3.72208 2.73035 3.55607 2.59515C3.39006 2.45994 3.18301 2.38522 2.96892 2.38325L1.05942 2.375C0.910239 2.3747 0.767283 2.31515 0.662005 2.20945C0.556727 2.10375 0.49775 1.96056 0.498048 1.81138C0.498346 1.66219 0.557896 1.51924 0.663596 1.41396C0.769296 1.30868 0.912489 1.2497 1.06167 1.25H1.06392L2.97342 1.25825C3.44457 1.26208 3.90035 1.42635 4.2656 1.72398C4.63086 2.02162 4.88378 2.43483 4.98267 2.8955L6.86142 11.8213C6.87873 11.9032 6.87752 11.988 6.85789 12.0694C6.83826 12.1508 6.80069 12.2268 6.74794 12.2918C6.69519 12.3569 6.62858 12.4093 6.55297 12.4453C6.47736 12.4813 6.39467 12.5 6.31092 12.5Z" fill="white"/>
<path id="Vector_3" d="M16.4375 14.75H5.1875C4.25675 14.75 3.5 13.9933 3.5 13.0625C3.5 12.1317 4.25675 11.375 5.1875 11.375H6.3125C6.46168 11.375 6.60476 11.4343 6.71025 11.5398C6.81574 11.6452 6.875 11.7883 6.875 11.9375C6.875 12.0867 6.81574 12.2298 6.71025 12.3352C6.60476 12.4407 6.46168 12.5 6.3125 12.5H5.1875C5.03832 12.5 4.89524 12.5593 4.78975 12.6648C4.68426 12.7702 4.625 12.9133 4.625 13.0625C4.625 13.2117 4.68426 13.3548 4.78975 13.4602C4.89524 13.5657 5.03832 13.625 5.1875 13.625H16.4375C16.5867 13.625 16.7298 13.6843 16.8352 13.7898C16.9407 13.8952 17 14.0383 17 14.1875C17 14.3367 16.9407 14.4798 16.8352 14.5852C16.7298 14.6907 16.5867 14.75 16.4375 14.75Z" fill="white"/>
<path id="Vector_4" d="M8.375 17.75C8.99632 17.75 9.5 17.2463 9.5 16.625C9.5 16.0037 8.99632 15.5 8.375 15.5C7.75368 15.5 7.25 16.0037 7.25 16.625C7.25 17.2463 7.75368 17.75 8.375 17.75Z" fill="white"/>
<path id="Vector_5" d="M14.375 17.75C14.9963 17.75 15.5 17.2463 15.5 16.625C15.5 16.0037 14.9963 15.5 14.375 15.5C13.7537 15.5 13.25 16.0037 13.25 16.625C13.25 17.2463 13.7537 17.75 14.375 17.75Z" fill="white"/>
</g>
<defs>
<clipPath id="clip0_1_661">
<rect width="18" height="18" fill="white" transform="translate(0.5 0.5)"/>
</clipPath>
</defs>
</svg>
