<svg width="24" height="25" viewBox="0 0 24 25" fill="none" xmlns="http://www.w3.org/2000/svg">
<path d="M21.25 16.502H7.74995C7.57784 16.5018 7.41101 16.4425 7.27739 16.334C7.14377 16.2255 7.05148 16.0744 7.01595 15.906L5.01595 6.40595C4.99312 6.29678 4.99482 6.1839 5.02093 6.07547C5.04704 5.96704 5.09692 5.86576 5.16695 5.77895C5.23752 5.69245 5.32644 5.62273 5.42727 5.57482C5.5281 5.52691 5.63832 5.50202 5.74995 5.50195H23.25C23.3615 5.50196 23.4717 5.52685 23.5724 5.57481C23.6731 5.62277 23.7619 5.6926 23.8322 5.7792C23.9025 5.86581 23.9526 5.96701 23.9789 6.07543C24.0051 6.18386 24.0069 6.29677 23.984 6.40595L21.984 15.906C21.9484 16.0744 21.8561 16.2255 21.7225 16.334C21.5889 16.4425 21.4221 16.5018 21.25 16.502ZM8.35795 15.002H20.641L22.325 7.00195H6.67395L8.35795 15.002Z" fill="#E74227"/>
<path d="M7.74855 16.502C7.57655 16.5017 7.40986 16.4424 7.27641 16.3339C7.14296 16.2254 7.05086 16.0743 7.01555 15.906L4.51055 4.00495C4.4502 3.72594 4.29675 3.47575 4.07541 3.29548C3.85407 3.11521 3.578 3.01558 3.29255 3.01295L0.746548 3.00195C0.547636 3.00156 0.357029 2.92216 0.216658 2.78122C0.0762866 2.64029 -0.00234945 2.44937 -0.00195162 2.25045C-0.0015538 2.05154 0.0778454 1.86093 0.218779 1.72056C0.359713 1.58019 0.550636 1.50156 0.749548 1.50195H0.752548L3.29855 1.51295C3.92675 1.51806 4.53445 1.73709 5.02146 2.13393C5.50846 2.53077 5.8457 3.08173 5.97755 3.69595L8.48255 15.597C8.50562 15.7062 8.50402 15.8192 8.47784 15.9278C8.45166 16.0363 8.40158 16.1377 8.33124 16.2244C8.2609 16.3111 8.17209 16.381 8.07128 16.4291C7.97047 16.4771 7.86021 16.502 7.74855 16.502Z" fill="#E74227"/>
<path d="M21.25 19.502H6.25C5.009 19.502 4 18.493 4 17.252C4 16.011 5.009 15.002 6.25 15.002H7.75C7.94891 15.002 8.13968 15.081 8.28033 15.2216C8.42098 15.3623 8.5 15.553 8.5 15.752C8.5 15.9509 8.42098 16.1416 8.28033 16.2823C8.13968 16.4229 7.94891 16.502 7.75 16.502H6.25C6.05109 16.502 5.86032 16.581 5.71967 16.7216C5.57902 16.8623 5.5 17.053 5.5 17.252C5.5 17.4509 5.57902 17.6416 5.71967 17.7823C5.86032 17.9229 6.05109 18.002 6.25 18.002H21.25C21.4489 18.002 21.6397 18.081 21.7803 18.2216C21.921 18.3623 22 18.553 22 18.752C22 18.9509 21.921 19.1416 21.7803 19.2823C21.6397 19.4229 21.4489 19.502 21.25 19.502Z" fill="#E74227"/>
<path d="M10.5 23.502C11.3284 23.502 12 22.8304 12 22.002C12 21.1735 11.3284 20.502 10.5 20.502C9.67157 20.502 9 21.1735 9 22.002C9 22.8304 9.67157 23.502 10.5 23.502Z" fill="#E74227"/>
<path d="M18.5 23.502C19.3284 23.502 20 22.8304 20 22.002C20 21.1735 19.3284 20.502 18.5 20.502C17.6716 20.502 17 21.1735 17 22.002C17 22.8304 17.6716 23.502 18.5 23.502Z" fill="#E74227"/>
</svg>
