<svg width="24" height="24" viewBox="0 0 24 24" fill="none" xmlns="http://www.w3.org/2000/svg">
<g id="Frame">
<path id="Vector" d="M22 19.4325V20.05C22 20.302 21.8946 20.5436 21.7071 20.7218C21.5196 20.8999 21.2652 21 21 21H19C14.4913 21 10.1673 19.2985 6.97918 16.2698C3.79107 13.2411 2 9.13325 2 4.85L2 2.95C2 2.69804 2.10536 2.45641 2.29289 2.27825C2.48043 2.10009 2.73478 2 3 2H7C7.26522 2 7.51957 2.10009 7.70711 2.27825C7.89464 2.45641 8 2.69804 8 2.95V6.75C8 7.282 7.69 7.9945 7.3 8.365L5.16 10.398C6.68 13.818 9.56 16.554 13.16 17.998L15.28 15.984C15.68 15.604 16.43 15.3095 16.98 15.3095H21C21.2635 15.312 21.5153 15.4132 21.7007 15.5911C21.886 15.769 21.99 16.0092 21.99 16.2595V19.442L22 19.4325Z" fill="#E74227"/>
</g>
</svg>
