<svg width="24" height="24" viewBox="0 0 24 24" fill="none" xmlns="http://www.w3.org/2000/svg">
<g id="clarity:grid-view-line" clip-path="url(#clip0_1_1611)">
<path id="Vector" d="M20.3334 2.6665H4.00008C3.64646 2.6665 3.30732 2.80698 3.05727 3.05703C2.80722 3.30708 2.66675 3.64622 2.66675 3.99984V9.33317C2.66675 9.68679 2.80722 10.0259 3.05727 10.276C3.30732 10.526 3.64646 10.6665 4.00008 10.6665H20.3334C20.687 10.6665 21.0262 10.526 21.2762 10.276C21.5263 10.0259 21.6667 9.68679 21.6667 9.33317V3.99984C21.6667 3.64622 21.5263 3.30708 21.2762 3.05703C21.0262 2.80698 20.687 2.6665 20.3334 2.6665ZM4.00008 9.33317V3.99984H20.3334V9.33317H4.00008Z" fill="currentColor"/>
<path id="Vector_2" d="M20.3334 13.3335H4.00008C3.64646 13.3335 3.30732 13.474 3.05727 13.724C2.80722 13.9741 2.66675 14.3132 2.66675 14.6668V20.0002C2.66675 20.3538 2.80722 20.6929 3.05727 20.943C3.30732 21.193 3.64646 21.3335 4.00008 21.3335H20.3334C20.687 21.3335 21.0262 21.193 21.2762 20.943C21.5263 20.6929 21.6667 20.3538 21.6667 20.0002V14.6668C21.6667 14.3132 21.5263 13.9741 21.2762 13.724C21.0262 13.474 20.687 13.3335 20.3334 13.3335ZM4.00008 20.0002V14.6668H20.3334V20.0002H4.00008Z" fill="currentColor"/>
</g>
<defs>
<clipPath id="clip0_1_1611">
<rect width="24" height="24" fill="white"/>
</clipPath>
</defs>
</svg>
