<svg width="18" height="18" viewBox="0 0 18 18" fill="none" xmlns="http://www.w3.org/2000/svg">
<g id="iconamoon:home">
<path id="Vector" d="M15.0004 7.49984C15.0004 7.30093 14.9214 7.11016 14.7808 6.96951C14.6401 6.82886 14.4493 6.74984 14.2504 6.74984C14.0515 6.74984 13.8607 6.82886 13.7201 6.96951C13.5794 7.11016 13.5004 7.30093 13.5004 7.49984H15.0004ZM4.50043 7.49984C4.50043 7.30093 4.42141 7.11016 4.28076 6.96951C4.1401 6.82886 3.94934 6.74984 3.75043 6.74984C3.55151 6.74984 3.36075 6.82886 3.2201 6.96951C3.07944 7.11016 3.00043 7.30093 3.00043 7.49984H4.50043ZM15.2202 9.53009C15.3616 9.66671 15.5511 9.7423 15.7477 9.74059C15.9444 9.73889 16.1325 9.66001 16.2715 9.52095C16.4106 9.3819 16.4895 9.19379 16.4912 8.99714C16.4929 8.80049 16.4173 8.61104 16.2807 8.46959L15.2202 9.53009ZM9.00043 2.24984L9.53068 1.71959C9.39003 1.57899 9.1993 1.5 9.00043 1.5C8.80155 1.5 8.61082 1.57899 8.47018 1.71959L9.00043 2.24984ZM1.72018 8.46959C1.64854 8.53877 1.59141 8.62153 1.5521 8.71304C1.51279 8.80454 1.4921 8.90295 1.49124 9.00254C1.49037 9.10212 1.50935 9.20088 1.54706 9.29306C1.58477 9.38523 1.64046 9.46897 1.71088 9.53939C1.7813 9.60981 1.86504 9.66549 1.95721 9.70321C2.04938 9.74092 2.14814 9.75989 2.24773 9.75903C2.34731 9.75816 2.44573 9.73747 2.53723 9.69817C2.62873 9.65886 2.71149 9.60172 2.78068 9.53009L1.72018 8.46959ZM5.25043 16.4998H12.7504V14.9998H5.25043V16.4998ZM15.0004 14.2498V7.49984H13.5004V14.2498H15.0004ZM4.50043 14.2498V7.49984H3.00043V14.2498H4.50043ZM16.2807 8.46959L9.53068 1.71959L8.47018 2.78009L15.2202 9.53009L16.2807 8.46959ZM8.47018 1.71959L1.72018 8.46959L2.78068 9.53009L9.53068 2.78009L8.47018 1.71959ZM12.7504 16.4998C13.3472 16.4998 13.9195 16.2628 14.3414 15.8408C14.7634 15.4189 15.0004 14.8466 15.0004 14.2498H13.5004C13.5004 14.4488 13.4214 14.6395 13.2808 14.7802C13.1401 14.9208 12.9493 14.9998 12.7504 14.9998V16.4998ZM5.25043 14.9998C5.05151 14.9998 4.86075 14.9208 4.7201 14.7802C4.57944 14.6395 4.50043 14.4488 4.50043 14.2498H3.00043C3.00043 14.8466 3.23748 15.4189 3.65944 15.8408C4.08139 16.2628 4.65369 16.4998 5.25043 16.4998V14.9998Z" fill="white"/>
</g>
</svg>
