<svg width="32" height="32" viewBox="0 0 32 32" fill="none" xmlns="http://www.w3.org/2000/svg">
<g id="ic:round-email">
<path id="Vector" d="M26.4 7H5.6C4.17 7 3.013 8.06875 3.013 9.375L3 23.625C3 24.9312 4.17 26 5.6 26H26.4C27.83 26 29 24.9312 29 23.625V9.375C29 8.06875 27.83 7 26.4 7ZM25.88 12.0469L16.689 17.2956C16.273 17.5331 15.727 17.5331 15.311 17.2956L6.12 12.0469C5.98965 11.98 5.87549 11.8897 5.78446 11.7814C5.69342 11.6731 5.62738 11.549 5.59035 11.4168C5.55331 11.2845 5.54605 11.1467 5.569 11.0117C5.59195 10.8768 5.64464 10.7475 5.72387 10.6317C5.80309 10.5159 5.90722 10.416 6.02994 10.3381C6.15267 10.2601 6.29143 10.2057 6.43784 10.1781C6.58426 10.1505 6.73527 10.1504 6.88174 10.1777C7.02821 10.205 7.1671 10.2591 7.29 10.3369L16 15.3125L24.71 10.3369C24.8329 10.2591 24.9718 10.205 25.1183 10.1777C25.2647 10.1504 25.4157 10.1505 25.5622 10.1781C25.7086 10.2057 25.8473 10.2601 25.9701 10.3381C26.0928 10.416 26.1969 10.5159 26.2761 10.6317C26.3554 10.7475 26.408 10.8768 26.431 11.0117C26.4539 11.1467 26.4467 11.2845 26.4097 11.4168C26.3726 11.549 26.3066 11.6731 26.2155 11.7814C26.1245 11.8897 26.0104 11.98 25.88 12.0469Z" fill="#E74227"/>
</g>
</svg>
