<svg width="32" height="32" viewBox="0 0 32 32" fill="none" xmlns="http://www.w3.org/2000/svg">
<g id="Frame 98">
<path id="Arrow 4" d="M16.5 7C16.5 6.72386 16.2761 6.5 16 6.5C15.7239 6.5 15.5 6.72386 15.5 7L16.5 7ZM15.6464 26.3536C15.8417 26.5488 16.1583 26.5488 16.3536 26.3536L19.5355 23.1716C19.7308 22.9763 19.7308 22.6597 19.5355 22.4645C19.3403 22.2692 19.0237 22.2692 18.8284 22.4645L16 25.2929L13.1716 22.4645C12.9763 22.2692 12.6597 22.2692 12.4645 22.4645C12.2692 22.6597 12.2692 22.9763 12.4645 23.1716L15.6464 26.3536ZM15.5 7L15.5 26L16.5 26L16.5 7L15.5 7Z" fill="#E74227"/>
</g>
</svg>
