<svg width="24" height="24" viewBox="0 0 24 24" fill="none" xmlns="http://www.w3.org/2000/svg">
<g id="iconamoon:search-bold">
<path id="Vector" d="M21 21L16.4158 16.4158M16.4158 16.4158C17.1999 15.6316 17.8219 14.7007 18.2463 13.6762C18.6707 12.6516 18.8891 11.5535 18.8891 10.4446C18.8891 9.33561 18.6707 8.23751 18.2463 7.21297C17.8219 6.18843 17.1999 5.25751 16.4158 4.47336C15.6316 3.68921 14.7007 3.06718 13.6762 2.6428C12.6516 2.21843 11.5535 2 10.4446 2C9.33561 2 8.23751 2.21843 7.21297 2.6428C6.18843 3.06718 5.25751 3.68921 4.47336 4.47336C2.88969 6.05702 2 8.20493 2 10.4446C2 12.6842 2.88969 14.8321 4.47336 16.4158C6.05702 17.9994 8.20493 18.8891 10.4446 18.8891C12.6842 18.8891 14.8321 17.9994 16.4158 16.4158Z" stroke="#E74227" stroke-width="2.5" stroke-linecap="round" stroke-linejoin="round"/>
</g>
</svg>
