<svg width="18" height="18" viewBox="0 0 18 18" fill="none" xmlns="http://www.w3.org/2000/svg">
<g id="clarity:grid-view-line" clip-path="url(#clip0_1_442)">
<path id="Vector" d="M7 2.00195H3C2.73478 2.00195 2.48043 2.10731 2.29289 2.29485C2.10536 2.48238 2 2.73674 2 3.00195V7.00195C2 7.26717 2.10536 7.52152 2.29289 7.70906C2.48043 7.8966 2.73478 8.00195 3 8.00195H7C7.26522 8.00195 7.51957 7.8966 7.70711 7.70906C7.89464 7.52152 8 7.26717 8 7.00195V3.00195C8 2.73674 7.89464 2.48238 7.70711 2.29485C7.51957 2.10731 7.26522 2.00195 7 2.00195ZM3 7.00195V3.00195H7V7.00195H3Z" fill="white"/>
<path id="Vector_2" d="M15 2.00195H11C10.7348 2.00195 10.4804 2.10731 10.2929 2.29485C10.1054 2.48238 10 2.73674 10 3.00195V7.00195C10 7.26717 10.1054 7.52152 10.2929 7.70906C10.4804 7.8966 10.7348 8.00195 11 8.00195H15C15.2652 8.00195 15.5196 7.8966 15.7071 7.70906C15.8946 7.52152 16 7.26717 16 7.00195V3.00195C16 2.73674 15.8946 2.48238 15.7071 2.29485C15.5196 2.10731 15.2652 2.00195 15 2.00195ZM11 7.00195V3.00195H15V7.00195H11Z" fill="white"/>
<path id="Vector_3" d="M7 10.002H3C2.73478 10.002 2.48043 10.1073 2.29289 10.2948C2.10536 10.4824 2 10.7367 2 11.002V15.002C2 15.2672 2.10536 15.5215 2.29289 15.7091C2.48043 15.8966 2.73478 16.002 3 16.002H7C7.26522 16.002 7.51957 15.8966 7.70711 15.7091C7.89464 15.5215 8 15.2672 8 15.002V11.002C8 10.7367 7.89464 10.4824 7.70711 10.2948C7.51957 10.1073 7.26522 10.002 7 10.002ZM3 15.002V11.002H7V15.002H3Z" fill="white"/>
<path id="Vector_4" d="M15 10.002H11C10.7348 10.002 10.4804 10.1073 10.2929 10.2948C10.1054 10.4824 10 10.7367 10 11.002V15.002C10 15.2672 10.1054 15.5215 10.2929 15.7091C10.4804 15.8966 10.7348 16.002 11 16.002H15C15.2652 16.002 15.5196 15.8966 15.7071 15.7091C15.8946 15.5215 16 15.2672 16 15.002V11.002C16 10.7367 15.8946 10.4824 15.7071 10.2948C15.5196 10.1073 15.2652 10.002 15 10.002ZM11 15.002V11.002H15V15.002H11Z" fill="white"/>
</g>
<defs>
<clipPath id="clip0_1_442">
<rect width="18" height="18" fill="white" transform="translate(0 0.00195312)"/>
</clipPath>
</defs>
</svg>
