<svg width="24" height="24" viewBox="0 0 24 24" fill="none" xmlns="http://www.w3.org/2000/svg">
<g id="clarity:grid-view-line" clip-path="url(#clip0_1_1605)">
<path id="Vector" d="M9.33342 2.6665H4.00008C3.64646 2.6665 3.30732 2.80698 3.05727 3.05703C2.80722 3.30708 2.66675 3.64622 2.66675 3.99984V9.33317C2.66675 9.68679 2.80722 10.0259 3.05727 10.276C3.30732 10.526 3.64646 10.6665 4.00008 10.6665H9.33342C9.68704 10.6665 10.0262 10.526 10.2762 10.276C10.5263 10.0259 10.6667 9.68679 10.6667 9.33317V3.99984C10.6667 3.64622 10.5263 3.30708 10.2762 3.05703C10.0262 2.80698 9.68704 2.6665 9.33342 2.6665ZM4.00008 9.33317V3.99984H9.33342V9.33317H4.00008Z" fill="currentColor"/>
<path id="Vector_2" d="M19.9999 2.6665H14.6666C14.313 2.6665 13.9738 2.80698 13.7238 3.05703C13.4737 3.30708 13.3333 3.64622 13.3333 3.99984V9.33317C13.3333 9.68679 13.4737 10.0259 13.7238 10.276C13.9738 10.526 14.313 10.6665 14.6666 10.6665H19.9999C20.3535 10.6665 20.6927 10.526 20.9427 10.276C21.1928 10.0259 21.3333 9.68679 21.3333 9.33317V3.99984C21.3333 3.64622 21.1928 3.30708 20.9427 3.05703C20.6927 2.80698 20.3535 2.6665 19.9999 2.6665ZM14.6666 9.33317V3.99984H19.9999V9.33317H14.6666Z" fill="currentColor"/>
<path id="Vector_3" d="M9.33342 13.3335H4.00008C3.64646 13.3335 3.30732 13.474 3.05727 13.724C2.80722 13.9741 2.66675 14.3132 2.66675 14.6668V20.0002C2.66675 20.3538 2.80722 20.6929 3.05727 20.943C3.30732 21.193 3.64646 21.3335 4.00008 21.3335H9.33342C9.68704 21.3335 10.0262 21.193 10.2762 20.943C10.5263 20.6929 10.6667 20.3538 10.6667 20.0002V14.6668C10.6667 14.3132 10.5263 13.9741 10.2762 13.724C10.0262 13.474 9.68704 13.3335 9.33342 13.3335ZM4.00008 20.0002V14.6668H9.33342V20.0002H4.00008Z" fill="currentColor"/>
<path id="Vector_4" d="M19.9999 13.3335H14.6666C14.313 13.3335 13.9738 13.474 13.7238 13.724C13.4737 13.9741 13.3333 14.3132 13.3333 14.6668V20.0002C13.3333 20.3538 13.4737 20.6929 13.7238 20.943C13.9738 21.193 14.313 21.3335 14.6666 21.3335H19.9999C20.3535 21.3335 20.6927 21.193 20.9427 20.943C21.1928 20.6929 21.3333 20.3538 21.3333 20.0002V14.6668C21.3333 14.3132 21.1928 13.9741 20.9427 13.724C20.6927 13.474 20.3535 13.3335 19.9999 13.3335ZM14.6666 20.0002V14.6668H19.9999V20.0002H14.6666Z" fill="currentColor"/>
</g>
<defs>
<clipPath id="clip0_1_1605">
<rect width="24" height="24" fill="white"/>
</clipPath>
</defs>
</svg>
