<svg width="32" height="32" viewBox="0 0 32 32" fill="none" xmlns="http://www.w3.org/2000/svg">
<g id="socials">
<rect id="Rectangle 1" width="32" height="32" rx="16" fill="#E74227" fill-opacity="0.4"/>
<path id="Vector" d="M21.0031 7.63693C17.9539 7.05462 14.7874 7.05462 11.7382 7.63693C10.3895 7.92808 8.68901 9.55854 8.39581 10.8396C7.86806 13.3435 7.86806 15.9057 8.39581 18.4096C8.74764 19.6907 10.4482 21.3212 11.7382 21.6123C11.7969 21.6123 11.8555 21.6705 11.8555 21.7288V25.3973C11.8555 25.572 12.0901 25.6885 12.2073 25.5138L13.9665 23.7086C13.9665 23.7086 15.3738 22.2529 15.6084 22.0199C15.6084 22.0199 15.667 21.9617 15.7257 21.9617C17.4848 22.0199 19.3026 21.8452 21.0618 21.5541C22.4105 21.2629 24.111 19.6325 24.4042 18.3514C24.9319 15.8475 24.9319 13.2853 24.4042 10.7814C24.0524 9.55854 22.3518 7.92808 21.0031 7.63693ZM21.0618 18.5843C20.7686 19.1666 20.4168 19.6325 19.8304 19.9236C19.6545 19.9819 19.4785 20.0401 19.3026 20.0983C19.0681 20.0401 18.8921 19.9819 18.7162 19.9236C16.8398 19.1666 15.0806 18.1185 13.6733 16.6045C12.911 15.731 12.266 14.7411 11.7382 13.6929C11.5037 13.1689 11.2691 12.703 11.0932 12.1789C10.9173 11.7131 11.2105 11.2472 11.5037 10.8979C11.7969 10.5485 12.1487 10.3155 12.5592 10.1409C12.8524 9.96616 13.1456 10.0826 13.3801 10.3155C13.8492 10.8979 14.3183 11.4802 14.6702 12.1207C14.9047 12.5283 14.8461 12.9942 14.4356 13.2853C14.3183 13.3435 14.2597 13.4018 14.1424 13.5182C14.0838 13.5765 13.9665 13.6347 13.9079 13.7512C13.7906 13.9259 13.7906 14.1005 13.8492 14.2752C14.3183 15.6145 15.1979 16.6627 16.5466 17.245C16.7811 17.3615 16.9571 17.4197 17.2503 17.4197C17.6607 17.3615 17.8366 16.8956 18.1298 16.6627C18.423 16.4298 18.7749 16.4298 19.1267 16.6045C19.4199 16.7792 19.7131 17.0121 20.0649 17.245C20.3581 17.4779 20.6513 17.6526 20.9445 17.8855C21.1204 18.002 21.1791 18.2932 21.0618 18.5843ZM18.599 14.217C18.4817 14.217 18.5403 14.217 18.599 14.217C18.3644 14.217 18.3058 14.1005 18.2471 13.9259C18.2471 13.8094 18.2471 13.6347 18.1885 13.5182C18.1298 13.2853 18.0126 13.0524 17.778 12.8777C17.6607 12.8195 17.5435 12.7612 17.4262 12.703C17.2503 12.6448 17.133 12.6448 16.9571 12.6448C16.7812 12.5865 16.7225 12.4701 16.7225 12.2954C16.7225 12.1789 16.8984 12.0625 17.0157 12.0625C17.9539 12.1207 18.6576 12.6448 18.7749 13.7512C18.7749 13.8094 18.7749 13.9259 18.7749 13.9841C18.7749 14.1005 18.7162 14.217 18.599 14.217ZM18.0126 11.6549C17.7194 11.5384 17.4262 11.4219 17.0743 11.3637C16.9571 11.3637 16.7812 11.3055 16.6639 11.3055C16.488 11.3055 16.3707 11.189 16.4293 11.0143C16.4293 10.8396 16.5466 10.7232 16.7225 10.7814C17.3089 10.8396 17.8366 10.9561 18.3644 11.189C19.4199 11.7131 20.0063 12.5865 20.1822 13.7512C20.1822 13.8094 20.1822 13.8676 20.1822 13.9259C20.1822 14.0423 20.1822 14.1588 20.1822 14.3335C20.1822 14.3917 20.1822 14.4499 20.1822 14.5082C20.1236 14.7411 19.7131 14.7993 19.6544 14.5082C19.6544 14.4499 19.5958 14.3335 19.5958 14.2752C19.5958 13.7512 19.4785 13.2271 19.244 12.7612C18.8921 12.2372 18.4817 11.8878 18.0126 11.6549ZM21.1791 15.1487C21.0031 15.1487 20.8859 14.974 20.8859 14.7993C20.8859 14.4499 20.8272 14.1005 20.7686 13.7512C20.534 11.8878 19.0094 10.3738 17.1916 10.0826C16.8984 10.0244 16.6052 10.0244 16.3707 9.96616C16.1948 9.96616 15.9602 9.96616 15.9016 9.73324C15.8429 9.55854 16.0188 9.38385 16.1948 9.38385C16.2534 9.38385 16.312 9.38385 16.312 9.38385C16.4293 9.38385 18.7162 9.44208 16.312 9.38385C18.7749 9.44208 20.8272 11.0725 21.2377 13.5182C21.2963 13.9259 21.355 14.3335 21.355 14.7993C21.4723 14.974 21.355 15.1487 21.1791 15.1487Z" fill="white"/>
</g>
</svg>
