<svg width="32" height="32" viewBox="0 0 32 32" fill="none" xmlns="http://www.w3.org/2000/svg">
<g id="socials">
<rect id="Rectangle 1" width="32" height="32" rx="16" fill="#E74227" fill-opacity="0.4"/>
<path id="Vector" fill-rule="evenodd" clip-rule="evenodd" d="M9.00999 21.6455C8.69618 21.5526 8.40985 21.3874 8.17516 21.1639C7.94048 20.9403 7.76432 20.665 7.66155 20.361C7.07433 18.7899 6.90034 12.2295 8.03129 10.9345C8.40769 10.5132 8.93911 10.2538 9.51021 10.2126C12.5442 9.89414 21.918 9.93661 22.9945 10.3188C23.2973 10.4147 23.574 10.5762 23.8037 10.7913C24.0335 11.0064 24.2104 11.2695 24.3212 11.5608C24.9628 13.1849 24.9846 19.0871 24.2342 20.6476C24.0352 21.0538 23.702 21.3828 23.2882 21.5818C22.1572 22.1338 10.5107 22.1231 9.00999 21.6455ZM13.8274 18.567L19.2646 15.807L13.8274 13.0257V18.567Z" fill="white"/>
</g>
</svg>
