<?xml version="1.0" encoding="utf-8"?><svg viewBox="0 0 100 100" xmlns="http://www.w3.org/2000/svg" xmlns:xlink="http://www.w3.org/1999/xlink"><style>:root>svg{display:none}:root>svg:target{display:block}</style><svg fill="none" viewBox="0 0 100 100" id="advantage-1" xmlns="http://www.w3.org/2000/svg"><g fill-rule="evenodd" clip-rule="evenodd" fill="#E74227" fill-opacity=".7"><path d="M50 10.417c-14.958 0-27.083 12.125-27.083 27.083 0 14.958 12.125 27.083 27.083 27.083 14.958 0 27.083-12.125 27.083-27.083 0-14.958-12.125-27.083-27.083-27.083ZM18.75 37.5C18.75 20.241 32.741 6.25 50 6.25S81.25 20.241 81.25 37.5 67.259 68.75 50 68.75 18.75 54.759 18.75 37.5Z"/><path d="M63.973 27.694a2.084 2.084 0 0 1 0 2.947L47.306 47.306a2.084 2.084 0 0 1-2.947 0l-8.333-8.333a2.083 2.083 0 1 1 2.946-2.946l6.86 6.86 15.194-15.194a2.084 2.084 0 0 1 2.947 0ZM29.167 56.25c1.15 0 2.084.933 2.084 2.083v29.654L48.929 77.38a2.081 2.081 0 0 1 2.143 0l17.679 10.607V58.333a2.084 2.084 0 0 1 4.166 0v33.334a2.083 2.083 0 0 1-3.155 1.786L50.001 81.596 30.239 93.453a2.083 2.083 0 0 1-3.155-1.786V58.333c0-1.15.933-2.083 2.083-2.083Z"/></g></svg><svg fill="none" viewBox="0 0 100 100" id="advantage-2" xmlns="http://www.w3.org/2000/svg"><g fill="#E74227" fill-opacity=".7"><path d="M77.143 88.996c-.417 0-.828-.163-1.136-.468l-8.383-8.383-6.894 8.277a1.598 1.598 0 0 1-1.161.574 1.575 1.575 0 0 1-1.207-.468l-8.488-8.492-8.49 8.489c-.32.32-.766.503-1.206.471a1.604 1.604 0 0 1-1.16-.574l-6.895-8.277-8.383 8.383A1.604 1.604 0 0 1 21 87.392V20.021C21 15.6 24.6 12 29.02 12h41.707c4.42 0 8.02 3.6 8.02 8.02v67.372a1.604 1.604 0 0 1-1.604 1.604Zm-27.27-12.832c.411 0 .822.157 1.136.468l8.383 8.383 6.895-8.277a1.598 1.598 0 0 1 1.161-.574c.44-.042.889.147 1.206.468l6.885 6.888v-63.5a4.818 4.818 0 0 0-4.812-4.812H29.02a4.818 4.818 0 0 0-4.812 4.812v63.5l6.885-6.885c.317-.32.773-.51 1.206-.468.453.02.87.228 1.162.574l6.894 8.277 8.383-8.383a1.601 1.601 0 0 1 1.136-.471Z"/><path d="M40.248 44.083a6.423 6.423 0 0 1-6.416-6.417 6.423 6.423 0 0 1 6.416-6.416 6.423 6.423 0 0 1 6.417 6.416 6.423 6.423 0 0 1-6.417 6.417Zm0-9.625a3.214 3.214 0 0 0-3.208 3.208 3.213 3.213 0 0 0 3.208 3.209 3.213 3.213 0 0 0 3.209-3.209 3.214 3.214 0 0 0-3.209-3.208ZM59.498 63.33a6.423 6.423 0 0 1-6.416-6.416 6.423 6.423 0 0 1 6.416-6.416 6.423 6.423 0 0 1 6.417 6.416 6.423 6.423 0 0 1-6.417 6.417Zm0-9.624a3.214 3.214 0 0 0-3.208 3.208 3.214 3.214 0 0 0 3.208 3.209 3.214 3.214 0 0 0 3.209-3.209 3.214 3.214 0 0 0-3.209-3.208ZM38.645 63.33a1.603 1.603 0 0 1-1.264-2.589l22.457-28.873a1.606 1.606 0 0 1 2.252-.28c.7.543.824 1.55.279 2.253L39.912 62.714a1.612 1.612 0 0 1-1.267.616Z"/></g></svg><svg fill="none" viewBox="0 0 100 100" id="advantage-3" xmlns="http://www.w3.org/2000/svg"><g fill="#E74227" fill-opacity=".7"><path d="M68.792 90.998c-12.245 0-22.208-9.963-22.208-22.208s9.963-22.208 22.208-22.208S91 56.545 91 68.79s-9.963 22.208-22.208 22.208Zm0-41C58.429 49.999 50 58.429 50 68.79c0 10.363 8.428 18.791 18.79 18.791 10.364 0 18.792-8.428 18.792-18.791s-8.428-18.791-18.791-18.791Z"/><path d="M65.374 77.333c-.45 0-.888-.18-1.21-.499l-6.832-6.833a1.71 1.71 0 0 1 0-2.415 1.71 1.71 0 0 1 2.415 0l5.542 5.541 10.755-12.293a1.703 1.703 0 0 1 2.413-.16 1.71 1.71 0 0 1 .16 2.412L66.66 76.752a1.705 1.705 0 0 1-1.23.581h-.055ZM43.189 44.873a1.71 1.71 0 0 1-1.53-.943 1.71 1.71 0 0 1 .765-2.293L74.86 25.408a1.71 1.71 0 0 1 2.47 1.527v14.521a1.709 1.709 0 0 1-3.417 0V29.7L43.951 44.692a1.698 1.698 0 0 1-.762.18Z"/><path d="M41.434 77.33c-.28 0-.567-.068-.83-.215L9.874 60.032A1.714 1.714 0 0 1 9 58.54V26.936c0-.591.307-1.141.81-1.452a1.694 1.694 0 0 1 1.66-.076l32.438 16.23a1.711 1.711 0 0 1 .765 2.292 1.71 1.71 0 0 1-2.293.765L12.417 29.7v27.835l29.85 16.594a1.71 1.71 0 0 1-.833 3.202Z"/><path d="M75.623 28.644c-.256 0-.516-.058-.762-.181L43.145 12.616 11.473 28.463A1.712 1.712 0 0 1 9.18 27.7a1.71 1.71 0 0 1 .762-2.293L42.38 9.18a1.715 1.715 0 0 1 1.527 0l32.478 16.23a1.711 1.711 0 0 1 .765 2.292 1.704 1.704 0 0 1-1.527.943Z"/><path d="M26.228 49.107a1.709 1.709 0 0 1-1.709-1.708V34.696c0-.646.366-1.237.944-1.528L57.9 16.94a1.709 1.709 0 1 1 1.527 3.058l-31.49 15.758v11.647c0 .943-.763 1.705-1.71 1.705Z"/></g></svg><svg fill="none" viewBox="0 0 100 100" id="advantage-4" xmlns="http://www.w3.org/2000/svg"><g stroke="#E74227" stroke-opacity=".7" stroke-width="4"><path d="M78.516 32.813c-.573 7.943-6.465 14.062-12.891 14.062s-12.328-6.117-12.89-14.063c-.587-8.263 5.15-14.062 12.89-14.062s13.477 5.95 12.89 14.063Z" stroke-linecap="round" stroke-linejoin="round"/><path d="M65.624 59.375c-12.728 0-24.968 6.322-28.035 18.635-.406 1.629.615 3.24 2.29 3.24h51.493c1.674 0 2.69-1.611 2.29-3.24-3.067-12.51-15.307-18.635-28.038-18.635Z" stroke-miterlimit="10"/><path d="M39.062 36.316c-.457 6.344-5.22 11.34-10.352 11.34-5.133 0-9.902-4.994-10.351-11.34C17.892 29.716 22.526 25 28.71 25c6.184 0 10.819 4.838 10.352 11.316Z" stroke-linecap="round" stroke-linejoin="round"/><path d="M40.234 59.766c-3.525-1.616-7.408-2.237-11.523-2.237-10.156 0-19.942 5.05-22.393 14.883-.322 1.3.494 2.588 1.83 2.588h21.93" stroke-miterlimit="10" stroke-linecap="round"/></g></svg><svg fill="none" viewBox="0 0 32 32" id="facebook" xmlns="http://www.w3.org/2000/svg"><rect width="32" height="32" rx="16" fill="#E74227" fill-opacity=".4"/><path d="M17.326 16.292h2.977l.468-3.044h-3.446v-1.663c0-1.264.41-2.385 1.586-2.385H20.8V6.544c-.332-.045-1.034-.144-2.36-.144-2.77 0-4.393 1.471-4.393 4.824v2.024H11.2v3.044h2.847v8.365c.564.085 1.135.143 1.721.143.53 0 1.047-.049 1.558-.118v-8.39Z" fill="#fff"/></svg><svg fill="none" viewBox="0 0 24 24" id="icon-arrow" xmlns="http://www.w3.org/2000/svg"><path d="m6 9.002 6 6 6-6" stroke="#fff" stroke-width="2" stroke-linecap="round"/></svg><svg fill="none" viewBox="0 0 24 24" id="icon-arrow-color" xmlns="http://www.w3.org/2000/svg"><path d="m6 9 6 6 6-6" stroke="#E74227" stroke-linecap="round"/></svg><svg fill="none" viewBox="0 0 32 32" id="icon-arrow-down" xmlns="http://www.w3.org/2000/svg"><path d="M16.5 7a.5.5 0 0 0-1 0h1Zm-.854 19.354a.5.5 0 0 0 .708 0l3.181-3.182a.5.5 0 1 0-.707-.707L16 25.293l-2.828-2.828a.5.5 0 1 0-.708.707l3.182 3.182ZM15.5 7v19h1V7h-1Z" fill="#E74227"/></svg><svg fill="none" viewBox="0 0 90 45" id="icon-arrows" xmlns="http://www.w3.org/2000/svg"><path d="m60.872 38.41 15.91-15.91-15.91-15.91-2.653 2.652L71.479 22.5l-13.26 13.258 2.653 2.651ZM29.128 6.59 13.218 22.5l15.91 15.91 2.653-2.652L18.521 22.5l13.26-13.258-2.653-2.651Z" fill="#fff"/></svg><svg fill="none" viewBox="0 0 24 25" id="icon-basket" xmlns="http://www.w3.org/2000/svg"><path d="M21.25 16.502H7.75a.751.751 0 0 1-.734-.596l-2-9.5a.753.753 0 0 1 .411-.831.753.753 0 0 1 .323-.073h17.5a.75.75 0 0 1 .734.904l-2 9.5a.752.752 0 0 1-.734.596Zm-12.892-1.5H20.64l1.684-8H6.674l1.684 8Z" fill="#E74227"/><path d="M7.749 16.502a.75.75 0 0 1-.733-.596L4.51 4.005a1.258 1.258 0 0 0-1.218-.992L.747 3.002a.75.75 0 1 1 .003-1.5h.003l2.546.011a2.763 2.763 0 0 1 2.679 2.183l2.505 11.901a.75.75 0 0 1-.734.905Z" fill="#E74227"/><path d="M21.25 19.502h-15A2.252 2.252 0 0 1 4 17.252a2.252 2.252 0 0 1 2.25-2.25h1.5a.75.75 0 1 1 0 1.5h-1.5a.75.75 0 1 0 0 1.5h15a.75.75 0 1 1 0 1.5ZM10.5 23.502a1.5 1.5 0 1 0 0-3 1.5 1.5 0 0 0 0 3ZM18.5 23.502a1.5 1.5 0 1 0 0-3 1.5 1.5 0 0 0 0 3Z" fill="#E74227"/></svg><svg fill="none" viewBox="0 0 19 19" id="icon-basket-white" xmlns="http://www.w3.org/2000/svg"><g clip-path="url(#ja)" fill="#fff"><path d="M16.438 12.5H6.312a.563.563 0 0 1-.55-.447l-1.5-7.125a.565.565 0 0 1 .55-.678h13.125a.563.563 0 0 1 .551.678l-1.5 7.125a.564.564 0 0 1-.55.447Zm-9.67-1.125h9.213l1.263-6H5.505l1.263 6Z"/><path d="M6.31 12.5a.563.563 0 0 1-.549-.447L3.882 3.127a.943.943 0 0 0-.913-.744l-1.91-.008a.563.563 0 0 1 .003-1.125h.002l1.91.008a2.072 2.072 0 0 1 2.009 1.638L6.86 11.82a.562.562 0 0 1-.55.679Z"/><path d="M16.438 14.75H5.188c-.931 0-1.688-.757-1.688-1.688 0-.93.757-1.687 1.688-1.687h1.125a.563.563 0 0 1 0 1.125H5.188a.563.563 0 0 0 0 1.125h11.25a.562.562 0 1 1 0 1.125ZM8.375 17.75a1.125 1.125 0 1 0 0-2.25 1.125 1.125 0 0 0 0 2.25ZM14.375 17.75a1.125 1.125 0 1 0 0-2.25 1.125 1.125 0 0 0 0 2.25Z"/></g><defs><clipPath id="ja"><path fill="#fff" transform="translate(.5 .5)" d="M0 0h18v18H0z"/></clipPath></defs></svg><svg fill="none" viewBox="0 0 24 24" id="icon-delete" xmlns="http://www.w3.org/2000/svg"><path d="M7 21c-.55 0-1.021-.196-1.413-.588A1.922 1.922 0 0 1 5 19V6H4V4h5V3h6v1h5v2h-1v13c0 .55-.196 1.021-.588 1.413A1.922 1.922 0 0 1 17 21H7Zm2-4h2V8H9v9Zm4 0h2V8h-2v9Z" fill="#707070"/></svg><svg fill="none" viewBox="0 0 32 32" id="icon-email" xmlns="http://www.w3.org/2000/svg"><path d="M26.4 7H5.6C4.17 7 3.013 8.069 3.013 9.375L3 23.625C3 24.931 4.17 26 5.6 26h20.8c1.43 0 2.6-1.069 2.6-2.375V9.375C29 8.069 27.83 7 26.4 7Zm-.52 5.047-9.191 5.249a1.422 1.422 0 0 1-1.378 0l-9.191-5.25a1.084 1.084 0 0 1-.336-.265.976.976 0 0 1-.194-.364.925.925 0 0 1 .134-.785c.08-.116.183-.216.306-.294a1.207 1.207 0 0 1 1.26-.001L16 15.312l8.71-4.975c.123-.078.262-.132.408-.16a1.207 1.207 0 0 1 .852.161c.123.078.227.178.306.294a.926.926 0 0 1 .134.785.977.977 0 0 1-.195.364 1.083 1.083 0 0 1-.335.266Z" fill="#E74227"/></svg><svg fill="none" viewBox="0 0 18 18" id="icon-grid" xmlns="http://www.w3.org/2000/svg"><g clip-path="url(#oa)" fill="#fff"><path d="M7 2.002H3a1 1 0 0 0-1 1v4a1 1 0 0 0 1 1h4a1 1 0 0 0 1-1v-4a1 1 0 0 0-1-1Zm-4 5v-4h4v4H3ZM15 2.002h-4a1 1 0 0 0-1 1v4a1 1 0 0 0 1 1h4a1 1 0 0 0 1-1v-4a1 1 0 0 0-1-1Zm-4 5v-4h4v4h-4ZM7 10.002H3a1 1 0 0 0-1 1v4a1 1 0 0 0 1 1h4a1 1 0 0 0 1-1v-4a1 1 0 0 0-1-1Zm-4 5v-4h4v4H3ZM15 10.002h-4a1 1 0 0 0-1 1v4a1 1 0 0 0 1 1h4a1 1 0 0 0 1-1v-4a1 1 0 0 0-1-1Zm-4 5v-4h4v4h-4Z"/></g><defs><clipPath id="oa"><path fill="#fff" transform="translate(0 .002)" d="M0 0h18v18H0z"/></clipPath></defs></svg><svg fill="none" viewBox="0 0 24 24" id="icon-grid-view" xmlns="http://www.w3.org/2000/svg"><g clip-path="url(#na)" fill="currentColor"><path d="M9.333 2.667H4A1.333 1.333 0 0 0 2.667 4v5.333A1.333 1.333 0 0 0 4 10.666h5.333a1.333 1.333 0 0 0 1.334-1.333V4a1.333 1.333 0 0 0-1.334-1.333ZM4 9.332V4h5.333v5.333H4ZM20 2.667h-5.333A1.333 1.333 0 0 0 13.333 4v5.333a1.333 1.333 0 0 0 1.334 1.333H20a1.333 1.333 0 0 0 1.333-1.333V4A1.333 1.333 0 0 0 20 2.667Zm-5.333 6.666V4H20v5.333h-5.333ZM9.333 13.334H4a1.334 1.334 0 0 0-1.333 1.333V20A1.333 1.333 0 0 0 4 21.334h5.333A1.333 1.333 0 0 0 10.667 20v-5.333a1.333 1.333 0 0 0-1.334-1.333ZM4 20v-5.333h5.333V20H4ZM20 13.334h-5.333a1.333 1.333 0 0 0-1.334 1.333V20a1.333 1.333 0 0 0 1.334 1.334H20A1.333 1.333 0 0 0 21.333 20v-5.333A1.333 1.333 0 0 0 20 13.334ZM14.667 20v-5.333H20V20h-5.333Z"/></g><defs><clipPath id="na"><path fill="#fff" d="M0 0h24v24H0z"/></clipPath></defs></svg><svg fill="none" viewBox="0 0 25 25" id="icon-heart" xmlns="http://www.w3.org/2000/svg"><path d="M19.166 14.502c1.49-1.46 3-3.21 3-5.5a5.5 5.5 0 0 0-5.5-5.5c-1.76 0-3 .5-4.5 2-1.5-1.5-2.74-2-4.5-2a5.5 5.5 0 0 0-5.5 5.5c0 2.3 1.5 4.05 3 5.5l7 7 7-7Z" stroke="#E74227" stroke-width="2" stroke-linecap="round" stroke-linejoin="round"/></svg><svg fill="none" viewBox="0 0 18 18" id="icon-home" xmlns="http://www.w3.org/2000/svg"><path d="M15 7.5a.75.75 0 1 0-1.5 0H15Zm-10.5 0a.75.75 0 0 0-1.5 0h1.5Zm10.72 2.03a.75.75 0 0 0 1.06-1.06l-1.06 1.06ZM9 2.25l.53-.53a.75.75 0 0 0-1.06 0l.53.53ZM1.72 8.47a.75.75 0 1 0 1.06 1.06L1.72 8.47Zm3.53 8.03h7.5V15h-7.5v1.5ZM15 14.25V7.5h-1.5v6.75H15Zm-10.5 0V7.5H3v6.75h1.5Zm11.78-5.78L9.53 1.72 8.47 2.78l6.75 6.75 1.06-1.06ZM8.47 1.72 1.72 8.47l1.06 1.06 6.75-6.75-1.06-1.06Zm4.28 14.78A2.25 2.25 0 0 0 15 14.25h-1.5a.75.75 0 0 1-.75.75v1.5ZM5.25 15a.75.75 0 0 1-.75-.75H3a2.25 2.25 0 0 0 2.25 2.25V15Z" fill="#fff"/></svg><svg fill="none" viewBox="0 0 24 24" id="icon-list-view" xmlns="http://www.w3.org/2000/svg"><g clip-path="url(#ra)" fill="currentColor"><path d="M20.333 2.667H4A1.333 1.333 0 0 0 2.667 4v5.333A1.333 1.333 0 0 0 4 10.666h16.333a1.333 1.333 0 0 0 1.334-1.333V4a1.333 1.333 0 0 0-1.334-1.333ZM4 9.332V4h16.333v5.333H4ZM20.333 13.334H4a1.334 1.334 0 0 0-1.333 1.333V20A1.333 1.333 0 0 0 4 21.334h16.333A1.333 1.333 0 0 0 21.667 20v-5.333a1.333 1.333 0 0 0-1.334-1.333ZM4 20v-5.333h16.333V20H4Z"/></g><defs><clipPath id="ra"><path fill="#fff" d="M0 0h24v24H0z"/></clipPath></defs></svg><svg fill="none" viewBox="0 0 18 18" id="icon-map" xmlns="http://www.w3.org/2000/svg"><path d="M9 1.5c-3.308 0-6 2.692-6 5.996-.022 4.834 5.772 8.842 6 9.004 0 0 6.022-4.17 6-9 0-3.308-2.692-6-6-6Zm0 9a3 3 0 1 1 0-6 3 3 0 1 1 0 6Z" fill="#CDCDCD"/></svg><svg fill="none" viewBox="0 0 24 24" id="icon-phone" xmlns="http://www.w3.org/2000/svg"><path d="M22 19.433v.617a.927.927 0 0 1-.293.672A1.028 1.028 0 0 1 21 21h-2c-4.509 0-8.833-1.701-12.02-4.73C3.79 13.24 2 9.133 2 4.85v-1.9c0-.252.105-.494.293-.672C2.48 2.1 2.735 2 3 2h4c.265 0 .52.1.707.278.188.178.293.42.293.672v3.8c0 .532-.31 1.245-.7 1.615l-2.14 2.033c1.52 3.42 4.4 6.156 8 7.6l2.12-2.014c.4-.38 1.15-.675 1.7-.675H21c.264.003.515.104.7.282.186.178.29.418.29.668v3.183l.01-.01Z" fill="#E74227"/></svg><svg fill="none" viewBox="0 0 18 19" id="icon-plus" xmlns="http://www.w3.org/2000/svg"><g clip-path="url(#ua)"><path d="m15 3.498-12 12m0-12 12 12" stroke="#fff" stroke-opacity=".6" stroke-width="2" stroke-linecap="round" stroke-linejoin="round"/></g><defs><clipPath id="ua"><path fill="#fff" transform="translate(0 .5)" d="M0 0h18v18H0z"/></clipPath></defs></svg><svg fill="none" viewBox="0 0 24 24" id="icon-search" xmlns="http://www.w3.org/2000/svg"><path d="m21 21-4.584-4.584m0 0a8.446 8.446 0 0 0-2.74-13.773 8.445 8.445 0 1 0 2.74 13.773Z" stroke="#E74227" stroke-width="2.5" stroke-linecap="round" stroke-linejoin="round"/></svg><svg fill="none" viewBox="0 0 32 32" id="instagram" xmlns="http://www.w3.org/2000/svg"><rect width="32" height="32" rx="16" fill="#E74227" fill-opacity=".4"/><g fill="#fff"><path d="M16 9.446h3.277c.771 0 1.157.193 1.446.289.385.193.675.29.964.578.289.29.482.579.578.964.096.29.193.675.29 1.446v6.554c0 .771-.194 1.157-.29 1.446-.193.385-.29.675-.578.964-.29.289-.579.482-.964.578-.29.096-.675.193-1.446.29h-6.554c-.771 0-1.157-.194-1.446-.29-.385-.193-.675-.29-.964-.578-.289-.29-.482-.579-.578-.964-.096-.29-.193-.675-.29-1.446v-6.554c0-.771.194-1.157.29-1.446.193-.385.29-.675.578-.964.29-.289.579-.482.964-.578.29-.096.675-.193 1.446-.29H16ZM16 8h-3.277c-.868 0-1.446.193-1.928.386a4.209 4.209 0 0 0-1.446.963c-.482.482-.674.868-.963 1.446-.193.482-.29 1.06-.386 1.928v6.554c0 .868.193 1.446.386 1.928.192.482.481.964.963 1.446s.868.674 1.446.963c.482.193 1.06.29 1.928.386h6.554c.868 0 1.446-.193 1.928-.386a4.21 4.21 0 0 0 1.446-.963c.482-.482.674-.868.963-1.446.193-.482.29-1.06.386-1.928v-6.554c0-.868-.193-1.446-.386-1.928a4.21 4.21 0 0 0-.963-1.446c-.482-.482-.868-.674-1.446-.963-.482-.193-1.06-.29-1.928-.386H16Z"/><path d="M16 11.855A4.114 4.114 0 0 0 11.855 16 4.114 4.114 0 0 0 16 20.145 4.114 4.114 0 0 0 20.145 16 4.114 4.114 0 0 0 16 11.855Zm0 6.844A2.694 2.694 0 0 1 13.301 16 2.694 2.694 0 0 1 16 13.301 2.694 2.694 0 0 1 18.699 16c0 1.446-1.253 2.699-2.699 2.699ZM20.241 12.723a.964.964 0 1 0 0-1.928.964.964 0 0 0 0 1.928Z"/></g></svg><svg fill="none" viewBox="0 0 32 32" id="telegram" xmlns="http://www.w3.org/2000/svg"><rect width="32" height="32" rx="16" fill="#E74227" fill-opacity=".4"/><path d="m22.4 10.082-2.404 12.552s-.337.87-1.26.453l-5.548-4.405-.026-.013c.75-.697 6.56-6.107 6.814-6.352.393-.38.149-.606-.307-.319l-8.584 5.644-3.31-1.153s-.522-.192-.572-.61c-.05-.418.588-.644.588-.644l13.5-5.484s1.109-.505 1.109.33Z" fill="#FEFEFE"/></svg><svg fill="none" viewBox="0 0 32 32" id="viber" xmlns="http://www.w3.org/2000/svg"><rect width="32" height="32" rx="16" fill="#E74227" fill-opacity=".4"/><path d="M21.003 7.637a24.787 24.787 0 0 0-9.265 0c-1.348.291-3.049 1.922-3.342 3.203a18.295 18.295 0 0 0 0 7.57c.352 1.28 2.052 2.911 3.342 3.202.059 0 .117.059.117.117v3.668c0 .175.235.292.352.117l1.76-1.805s1.407-1.456 1.641-1.69c0 0 .059-.057.118-.057 1.759.058 3.577-.117 5.336-.408 1.348-.291 3.049-1.921 3.342-3.203a18.297 18.297 0 0 0 0-7.57c-.352-1.222-2.052-2.853-3.4-3.144Zm.059 10.947c-.293.583-.645 1.049-1.232 1.34l-.527.174a7.384 7.384 0 0 1-.587-.174c-1.876-.757-3.635-1.805-5.043-3.32a14.007 14.007 0 0 1-1.935-2.911c-.234-.524-.469-.99-.645-1.514-.176-.466.117-.932.41-1.281.294-.35.646-.582 1.056-.757.293-.175.587-.058.821.175.47.582.938 1.164 1.29 1.805.235.407.176.873-.234 1.164-.118.059-.176.117-.294.233-.058.058-.175.117-.234.233a.563.563 0 0 0-.059.524c.47 1.34 1.349 2.388 2.698 2.97a1.4 1.4 0 0 0 .703.175c.41-.059.587-.524.88-.757.293-.233.645-.233.997-.058.293.174.586.407.938.64.293.233.586.408.88.64.175.117.234.408.117.7Zm-2.463-4.367c-.117 0-.059 0 0 0-.235 0-.293-.117-.352-.291 0-.117 0-.291-.058-.408a1.106 1.106 0 0 0-.411-.64l-.352-.175c-.176-.058-.293-.058-.469-.058-.176-.059-.235-.175-.235-.35 0-.116.176-.232.294-.232.938.058 1.642.582 1.759 1.688v.233c0 .117-.059.233-.176.233Zm-.586-2.562c-.294-.117-.587-.233-.939-.291-.117 0-.293-.059-.41-.059-.176 0-.293-.116-.235-.29 0-.175.118-.292.294-.234.586.059 1.114.175 1.641.408 1.056.524 1.642 1.397 1.818 2.562V14.508c-.058.233-.469.291-.528 0 0-.058-.058-.174-.058-.233 0-.524-.117-1.048-.352-1.514-.352-.524-.762-.873-1.231-1.106Zm3.166 3.494c-.176 0-.293-.175-.293-.35 0-.35-.059-.698-.117-1.048-.235-1.863-1.76-3.377-3.577-3.668-.294-.059-.587-.059-.821-.117-.176 0-.41 0-.47-.233-.058-.174.118-.35.294-.35h.117c.117 0 2.404.06 0 0 2.463.06 4.515 1.69 4.926 4.135.058.408.117.816.117 1.281.117.175 0 .35-.176.35Z" fill="#fff"/></svg><svg fill="none" viewBox="0 0 32 32" id="youtybe" xmlns="http://www.w3.org/2000/svg"><rect width="32" height="32" rx="16" fill="#E74227" fill-opacity=".4"/><path fill-rule="evenodd" clip-rule="evenodd" d="M9.01 21.645a2.057 2.057 0 0 1-.835-.481 1.99 1.99 0 0 1-.513-.803c-.588-1.571-.762-8.132.37-9.427.376-.42.907-.68 1.478-.721 3.034-.319 12.408-.276 13.484.106.303.096.58.257.81.472.23.215.406.479.517.77.642 1.624.664 7.526-.087 9.087a2.03 2.03 0 0 1-.946.934c-1.13.552-12.777.541-14.278.063Zm4.817-3.078 5.438-2.76-5.438-2.781v5.541Z" fill="#fff"/></svg></svg>